<?xml version="1.0" encoding="UTF-8" standalone="no"?>
<!DOCTYPE svg PUBLIC "-//W3C//DTD SVG 1.1//EN"
 "http://www.w3.org/Graphics/SVG/1.1/DTD/svg11.dtd">
<!-- Generated by graphviz version 2.47.0 (20210316.0004)
 -->
<!-- Pages: 1 -->
<svg width="2383pt" height="404pt"
 viewBox="0.00 0.00 2383.24 404.00" xmlns="http://www.w3.org/2000/svg" xmlns:xlink="http://www.w3.org/1999/xlink">
<g id="graph0" class="graph" transform="scale(1 1) rotate(0) translate(4 400)">
<polygon fill="white" stroke="transparent" points="-4,4 -4,-400 2379.24,-400 2379.24,4 -4,4"/>
<!-- Familias -->
<g id="node1" class="node">
<title>Familias</title>
<ellipse fill="none" stroke="black" cx="1405.6" cy="-378" rx="41.69" ry="18"/>
<text text-anchor="middle" x="1405.6" y="-374.3" font-family="Times,serif" font-size="14.00">Familias</text>
</g>
<!-- correderas -->
<g id="node2" class="node">
<title>correderas</title>
<ellipse fill="none" stroke="black" cx="1105.6" cy="-306" rx="47.39" ry="18"/>
<text text-anchor="middle" x="1105.6" y="-302.3" font-family="Times,serif" font-size="14.00">correderas</text>
</g>
<!-- Familias&#45;&#45;correderas -->
<g id="edge1" class="edge">
<title>Familias&#45;&#45;correderas</title>
<path fill="none" stroke="black" d="M1368.17,-369.85C1320.09,-360.44 1234.18,-342.87 1161.6,-324 1154.81,-322.24 1147.62,-320.19 1140.72,-318.14"/>
</g>
<!-- practicables -->
<g id="node3" class="node">
<title>practicables</title>
<ellipse fill="none" stroke="black" cx="1223.6" cy="-306" rx="52.79" ry="18"/>
<text text-anchor="middle" x="1223.6" y="-302.3" font-family="Times,serif" font-size="14.00">practicables</text>
</g>
<!-- Familias&#45;&#45;practicables -->
<g id="edge2" class="edge">
<title>Familias&#45;&#45;practicables</title>
<path fill="none" stroke="black" d="M1375.54,-365.44C1343.03,-352.94 1291.32,-333.05 1257.41,-320"/>
</g>
<!-- puertas -->
<g id="node4" class="node">
<title>puertas</title>
<ellipse fill="none" stroke="black" cx="1330.6" cy="-306" rx="36.29" ry="18"/>
<text text-anchor="middle" x="1330.6" y="-302.3" font-family="Times,serif" font-size="14.00">puertas</text>
</g>
<!-- Familias&#45;&#45;puertas -->
<g id="edge3" class="edge">
<title>Familias&#45;&#45;puertas</title>
<path fill="none" stroke="black" d="M1388.95,-361.46C1376.44,-349.78 1359.38,-333.86 1346.94,-322.25"/>
</g>
<!-- puertas apertura exterior -->
<g id="node5" class="node">
<title>puertas apertura exterior</title>
<ellipse fill="none" stroke="black" cx="1481.6" cy="-306" rx="96.68" ry="18"/>
<text text-anchor="middle" x="1481.6" y="-302.3" font-family="Times,serif" font-size="14.00">puertas apertura exterior</text>
</g>
<!-- Familias&#45;&#45;puertas apertura exterior -->
<g id="edge4" class="edge">
<title>Familias&#45;&#45;puertas apertura exterior</title>
<path fill="none" stroke="black" d="M1422.46,-361.46C1434.62,-350.27 1451.01,-335.17 1463.45,-323.71"/>
</g>
<!-- elevadoras -->
<g id="node6" class="node">
<title>elevadoras</title>
<ellipse fill="none" stroke="black" cx="1644.6" cy="-306" rx="48.19" ry="18"/>
<text text-anchor="middle" x="1644.6" y="-302.3" font-family="Times,serif" font-size="14.00">elevadoras</text>
</g>
<!-- Familias&#45;&#45;elevadoras -->
<g id="edge5" class="edge">
<title>Familias&#45;&#45;elevadoras</title>
<path fill="none" stroke="black" d="M1439.16,-367.3C1475.69,-356.72 1535.83,-339.26 1587.6,-324 1594.23,-322.04 1601.3,-319.95 1608.12,-317.92"/>
</g>
<!-- persianas -->
<g id="node7" class="node">
<title>persianas</title>
<ellipse fill="none" stroke="black" cx="1754.6" cy="-306" rx="43.59" ry="18"/>
<text text-anchor="middle" x="1754.6" y="-302.3" font-family="Times,serif" font-size="14.00">persianas</text>
</g>
<!-- Familias&#45;&#45;persianas -->
<g id="edge6" class="edge">
<title>Familias&#45;&#45;persianas</title>
<path fill="none" stroke="black" d="M1444.73,-371.69C1501.72,-363.58 1610.66,-346.62 1701.6,-324 1708.35,-322.32 1715.49,-320.24 1722.28,-318.12"/>
</g>
<!-- pieza -->
<g id="node8" class="node">
<title>pieza</title>
<ellipse fill="none" stroke="black" cx="1405.6" cy="-234" rx="29.5" ry="18"/>
<text text-anchor="middle" x="1405.6" y="-230.3" font-family="Times,serif" font-size="14.00">pieza</text>
</g>
<!-- correderas&#45;&#45;pieza -->
<g id="edge7" class="edge">
<title>correderas&#45;&#45;pieza</title>
<path fill="none" stroke="black" d="M1140.72,-293.86C1147.62,-291.81 1154.81,-289.76 1161.6,-288 1239.42,-267.77 1332.58,-249.03 1377.98,-240.24"/>
</g>
<!-- practicables&#45;&#45;pieza -->
<g id="edge8" class="edge">
<title>practicables&#45;&#45;pieza</title>
<path fill="none" stroke="black" d="M1257.4,-292C1293.38,-278.16 1349.42,-256.61 1381.28,-244.35"/>
</g>
<!-- puertas&#45;&#45;pieza -->
<g id="edge9" class="edge">
<title>puertas&#45;&#45;pieza</title>
<path fill="none" stroke="black" d="M1346.87,-289.81C1359.71,-277.83 1377.5,-261.23 1390.12,-249.44"/>
</g>
<!-- puertas apertura exterior&#45;&#45;pieza -->
<g id="edge10" class="edge">
<title>puertas apertura exterior&#45;&#45;pieza</title>
<path fill="none" stroke="black" d="M1463.2,-288.05C1450.37,-276.24 1433.44,-260.64 1421.26,-249.42"/>
</g>
<!-- elevadoras&#45;&#45;pieza -->
<g id="edge11" class="edge">
<title>elevadoras&#45;&#45;pieza</title>
<path fill="none" stroke="black" d="M1608.12,-294.08C1601.3,-292.05 1594.23,-289.96 1587.6,-288 1532.04,-271.63 1466.85,-252.72 1431.53,-242.5"/>
</g>
<!-- persianas&#45;&#45;pieza -->
<g id="edge12" class="edge">
<title>persianas&#45;&#45;pieza</title>
<path fill="none" stroke="black" d="M1722.28,-293.88C1715.49,-291.76 1708.35,-289.68 1701.6,-288 1604.58,-263.87 1487.07,-246.18 1434.02,-238.8"/>
</g>
<!-- ancho -->
<g id="node9" class="node">
<title>ancho</title>
<ellipse fill="none" stroke="black" cx="44.6" cy="-162" rx="31.7" ry="18"/>
<text text-anchor="middle" x="44.6" y="-158.3" font-family="Times,serif" font-size="14.00">ancho</text>
</g>
<!-- pieza&#45;&#45;ancho -->
<g id="edge13" class="edge">
<title>pieza&#45;&#45;ancho</title>
<path fill="none" stroke="black" d="M1376.22,-233.03C1206.44,-233.05 349.52,-230.59 91.6,-180 84.27,-178.56 76.57,-176.17 69.56,-173.63"/>
</g>
<!-- alto -->
<g id="node10" class="node">
<title>alto</title>
<ellipse fill="none" stroke="black" cx="127.6" cy="-162" rx="27" ry="18"/>
<text text-anchor="middle" x="127.6" y="-158.3" font-family="Times,serif" font-size="14.00">alto</text>
</g>
<!-- pieza&#45;&#45;alto -->
<g id="edge14" class="edge">
<title>pieza&#45;&#45;alto</title>
<path fill="none" stroke="black" d="M1376.25,-233.2C1212.2,-234.1 407.32,-235.58 166.6,-180 160.55,-178.6 154.27,-176.29 148.57,-173.82"/>
</g>
<!-- material -->
<g id="node11" class="node">
<title>material</title>
<ellipse fill="none" stroke="black" cx="215.6" cy="-162" rx="40.09" ry="18"/>
<text text-anchor="middle" x="215.6" y="-158.3" font-family="Times,serif" font-size="14.00">material</text>
</g>
<!-- pieza&#45;&#45;material -->
<g id="edge15" class="edge">
<title>pieza&#45;&#45;material</title>
<path fill="none" stroke="black" d="M1376.29,-231.48C1260.44,-225.45 823.26,-202.44 463.6,-180 389.94,-175.4 304.03,-169.36 255.1,-165.86"/>
</g>
<!-- color -->
<g id="node12" class="node">
<title>color</title>
<ellipse fill="none" stroke="black" cx="501.6" cy="-162" rx="28.7" ry="18"/>
<text text-anchor="middle" x="501.6" y="-158.3" font-family="Times,serif" font-size="14.00">color</text>
</g>
<!-- pieza&#45;&#45;color -->
<g id="edge16" class="edge">
<title>pieza&#45;&#45;color</title>
<path fill="none" stroke="black" d="M1376.8,-230.77C1240.97,-220.25 665.35,-175.68 530.12,-165.21"/>
</g>
<!-- apertura -->
<g id="node13" class="node">
<title>apertura</title>
<ellipse fill="none" stroke="black" cx="775.6" cy="-162" rx="39.79" ry="18"/>
<text text-anchor="middle" x="775.6" y="-158.3" font-family="Times,serif" font-size="14.00">apertura</text>
</g>
<!-- pieza&#45;&#45;apertura -->
<g id="edge17" class="edge">
<title>pieza&#45;&#45;apertura</title>
<path fill="none" stroke="black" d="M1376.89,-229.81C1274.83,-218.47 929.44,-180.09 813.73,-167.24"/>
</g>
<!-- mallorquina -->
<g id="node14" class="node">
<title>mallorquina</title>
<ellipse fill="none" stroke="black" cx="1078.6" cy="-162" rx="53.89" ry="18"/>
<text text-anchor="middle" x="1078.6" y="-158.3" font-family="Times,serif" font-size="14.00">mallorquina</text>
</g>
<!-- pieza&#45;&#45;mallorquina -->
<g id="edge18" class="edge">
<title>pieza&#45;&#45;mallorquina</title>
<path fill="none" stroke="black" d="M1377.72,-228.02C1329.42,-219.27 1227.15,-200.11 1141.6,-180 1134.1,-178.24 1126.14,-176.21 1118.49,-174.19"/>
</g>
<!-- cierres -->
<g id="node15" class="node">
<title>cierres</title>
<ellipse fill="none" stroke="black" cx="1184.6" cy="-162" rx="34.39" ry="18"/>
<text text-anchor="middle" x="1184.6" y="-158.3" font-family="Times,serif" font-size="14.00">cierres</text>
</g>
<!-- pieza&#45;&#45;cierres -->
<g id="edge19" class="edge">
<title>pieza&#45;&#45;cierres</title>
<path fill="none" stroke="black" d="M1379.3,-225.82C1344.56,-216.17 1281.55,-198.13 1228.6,-180 1222.86,-178.04 1216.77,-175.79 1211,-173.58"/>
</g>
<!-- cerradura -->
<g id="node16" class="node">
<title>cerradura</title>
<ellipse fill="none" stroke="black" cx="1281.6" cy="-162" rx="44.39" ry="18"/>
<text text-anchor="middle" x="1281.6" y="-158.3" font-family="Times,serif" font-size="14.00">cerradura</text>
</g>
<!-- pieza&#45;&#45;cerradura -->
<g id="edge20" class="edge">
<title>pieza&#45;&#45;cerradura</title>
<path fill="none" stroke="black" d="M1384.84,-221.28C1363.33,-209.14 1329.7,-190.15 1306.7,-177.17"/>
</g>
<!-- marco interior -->
<g id="node17" class="node">
<title>marco interior</title>
<ellipse fill="none" stroke="black" cx="1405.6" cy="-162" rx="61.99" ry="18"/>
<text text-anchor="middle" x="1405.6" y="-158.3" font-family="Times,serif" font-size="14.00">marco interior</text>
</g>
<!-- pieza&#45;&#45;marco interior -->
<g id="edge21" class="edge">
<title>pieza&#45;&#45;marco interior</title>
<path fill="none" stroke="black" d="M1405.6,-215.7C1405.6,-204.85 1405.6,-190.92 1405.6,-180.1"/>
</g>
<!-- huella -->
<g id="node18" class="node">
<title>huella</title>
<ellipse fill="none" stroke="black" cx="1517.6" cy="-162" rx="32.49" ry="18"/>
<text text-anchor="middle" x="1517.6" y="-158.3" font-family="Times,serif" font-size="14.00">huella</text>
</g>
<!-- pieza&#45;&#45;huella -->
<g id="edge22" class="edge">
<title>pieza&#45;&#45;huella</title>
<path fill="none" stroke="black" d="M1425.36,-220.65C1445.46,-208.09 1476.46,-188.71 1496.89,-175.94"/>
</g>
<!-- accionamiento -->
<g id="node19" class="node">
<title>accionamiento</title>
<ellipse fill="none" stroke="black" cx="1630.6" cy="-162" rx="62.29" ry="18"/>
<text text-anchor="middle" x="1630.6" y="-158.3" font-family="Times,serif" font-size="14.00">accionamiento</text>
</g>
<!-- pieza&#45;&#45;accionamiento -->
<g id="edge23" class="edge">
<title>pieza&#45;&#45;accionamiento</title>
<path fill="none" stroke="black" d="M1431.41,-224.97C1470.19,-212.9 1543.85,-189.99 1589.92,-175.66"/>
</g>
<!-- tapajuntas -->
<g id="node20" class="node">
<title>tapajuntas</title>
<ellipse fill="none" stroke="black" cx="1757.6" cy="-162" rx="46.29" ry="18"/>
<text text-anchor="middle" x="1757.6" y="-158.3" font-family="Times,serif" font-size="14.00">tapajuntas</text>
</g>
<!-- pieza&#45;&#45;tapajuntas -->
<g id="edge24" class="edge">
<title>pieza&#45;&#45;tapajuntas</title>
<path fill="none" stroke="black" d="M1433.99,-229.05C1486.98,-221.43 1604.39,-203.37 1701.6,-180 1708.61,-178.31 1716.04,-176.26 1723.12,-174.16"/>
</g>
<!-- forro -->
<g id="node21" class="node">
<title>forro</title>
<ellipse fill="none" stroke="black" cx="1850.6" cy="-162" rx="28.7" ry="18"/>
<text text-anchor="middle" x="1850.6" y="-158.3" font-family="Times,serif" font-size="14.00">forro</text>
</g>
<!-- pieza&#45;&#45;forro -->
<g id="edge25" class="edge">
<title>pieza&#45;&#45;forro</title>
<path fill="none" stroke="black" d="M1434.8,-232.1C1502.46,-229.39 1674.76,-218.9 1812.6,-180 1818.02,-178.47 1823.67,-176.29 1828.9,-174.01"/>
</g>
<!-- cristal -->
<g id="node22" class="node">
<title>cristal</title>
<ellipse fill="none" stroke="black" cx="1929.6" cy="-162" rx="32.49" ry="18"/>
<text text-anchor="middle" x="1929.6" y="-158.3" font-family="Times,serif" font-size="14.00">cristal</text>
</g>
<!-- pieza&#45;&#45;cristal -->
<g id="edge26" class="edge">
<title>pieza&#45;&#45;cristal</title>
<path fill="none" stroke="black" d="M1434.96,-232.66C1511.11,-231.15 1720.68,-223.09 1888.6,-180 1894.27,-178.54 1900.19,-176.45 1905.7,-174.24"/>
</g>
<!-- instalación -->
<g id="node23" class="node">
<title>instalación</title>
<ellipse fill="none" stroke="black" cx="2028.6" cy="-162" rx="48.99" ry="18"/>
<text text-anchor="middle" x="2028.6" y="-158.3" font-family="Times,serif" font-size="14.00">instalación</text>
</g>
<!-- pieza&#45;&#45;instalación -->
<g id="edge27" class="edge">
<title>pieza&#45;&#45;instalación</title>
<path fill="none" stroke="black" d="M1434.98,-232.22C1519.16,-229.58 1768.12,-218.8 1970.6,-180 1978.02,-178.58 1985.85,-176.61 1993.28,-174.52"/>
</g>
<!-- remates albañilería -->
<g id="node24" class="node">
<title>remates albañilería</title>
<ellipse fill="none" stroke="black" cx="2173.6" cy="-162" rx="77.99" ry="18"/>
<text text-anchor="middle" x="2173.6" y="-158.3" font-family="Times,serif" font-size="14.00">remates albañilería</text>
</g>
<!-- pieza&#45;&#45;remates albañilería -->
<g id="edge28" class="edge">
<title>pieza&#45;&#45;remates albañilería</title>
<path fill="none" stroke="black" d="M1434.93,-231.93C1529.64,-228.2 1835.73,-214.16 2086.6,-180 2096.97,-178.59 2107.96,-176.73 2118.53,-174.75"/>
</g>
<!-- añadir fotos -->
<g id="node25" class="node">
<title>añadir fotos</title>
<ellipse fill="none" stroke="black" cx="2322.6" cy="-162" rx="52.79" ry="18"/>
<text text-anchor="middle" x="2322.6" y="-158.3" font-family="Times,serif" font-size="14.00">añadir fotos</text>
</g>
<!-- pieza&#45;&#45;añadir fotos -->
<g id="edge29" class="edge">
<title>pieza&#45;&#45;añadir fotos</title>
<path fill="none" stroke="black" d="M1435,-233.36C1544.73,-234.22 1940.41,-233.24 2260.6,-180 2268.52,-178.68 2276.9,-176.76 2284.84,-174.68"/>
</g>
<!-- números -->
<g id="node26" class="node">
<title>números</title>
<ellipse fill="none" stroke="black" cx="41.6" cy="-90" rx="41.69" ry="18"/>
<text text-anchor="middle" x="41.6" y="-86.3" font-family="Times,serif" font-size="14.00">números</text>
</g>
<!-- ancho&#45;&#45;números -->
<g id="edge30" class="edge">
<title>ancho&#45;&#45;números</title>
<path fill="none" stroke="black" d="M43.85,-143.7C43.39,-132.85 42.79,-118.92 42.33,-108.1"/>
</g>
<!-- alto&#45;&#45;números -->
<g id="edge31" class="edge">
<title>alto&#45;&#45;números</title>
<path fill="none" stroke="black" d="M111.01,-147.5C96.47,-135.66 75.34,-118.47 60.22,-106.16"/>
</g>
<!-- pvc -->
<g id="node27" class="node">
<title>pvc</title>
<ellipse fill="none" stroke="black" cx="128.6" cy="-90" rx="27" ry="18"/>
<text text-anchor="middle" x="128.6" y="-86.3" font-family="Times,serif" font-size="14.00">pvc</text>
</g>
<!-- material&#45;&#45;pvc -->
<g id="edge32" class="edge">
<title>material&#45;&#45;pvc</title>
<path fill="none" stroke="black" d="M196.72,-145.81C181.33,-133.43 159.8,-116.11 145.09,-104.27"/>
</g>
<!-- aluminio -->
<g id="node28" class="node">
<title>aluminio</title>
<ellipse fill="none" stroke="black" cx="215.6" cy="-90" rx="42.49" ry="18"/>
<text text-anchor="middle" x="215.6" y="-86.3" font-family="Times,serif" font-size="14.00">aluminio</text>
</g>
<!-- material&#45;&#45;aluminio -->
<g id="edge33" class="edge">
<title>material&#45;&#45;aluminio</title>
<path fill="none" stroke="black" d="M215.6,-143.7C215.6,-132.85 215.6,-118.92 215.6,-108.1"/>
</g>
<!-- blanco -->
<g id="node29" class="node">
<title>blanco</title>
<ellipse fill="none" stroke="black" cx="310.6" cy="-90" rx="34.39" ry="18"/>
<text text-anchor="middle" x="310.6" y="-86.3" font-family="Times,serif" font-size="14.00">blanco</text>
</g>
<!-- color&#45;&#45;blanco -->
<g id="edge34" class="edge">
<title>color&#45;&#45;blanco</title>
<path fill="none" stroke="black" d="M477.15,-152.52C447.73,-142.25 396.89,-124.3 353.6,-108 348.34,-106.02 342.74,-103.85 337.38,-101.75"/>
</g>
<!-- madera -->
<g id="node30" class="node">
<title>madera</title>
<ellipse fill="none" stroke="black" cx="399.6" cy="-90" rx="37.09" ry="18"/>
<text text-anchor="middle" x="399.6" y="-86.3" font-family="Times,serif" font-size="14.00">madera</text>
</g>
<!-- color&#45;&#45;madera -->
<g id="edge35" class="edge">
<title>color&#45;&#45;madera</title>
<path fill="none" stroke="black" d="M482.89,-148.16C465.17,-136 438.63,-117.79 420.29,-105.2"/>
</g>
<!-- anonizado -->
<g id="node31" class="node">
<title>anonizado</title>
<ellipse fill="none" stroke="black" cx="501.6" cy="-90" rx="46.59" ry="18"/>
<text text-anchor="middle" x="501.6" y="-86.3" font-family="Times,serif" font-size="14.00">anonizado</text>
</g>
<!-- color&#45;&#45;anonizado -->
<g id="edge36" class="edge">
<title>color&#45;&#45;anonizado</title>
<path fill="none" stroke="black" d="M501.6,-143.7C501.6,-132.85 501.6,-118.92 501.6,-108.1"/>
</g>
<!-- ral -->
<g id="node32" class="node">
<title>ral</title>
<ellipse fill="none" stroke="black" cx="593.6" cy="-90" rx="27" ry="18"/>
<text text-anchor="middle" x="593.6" y="-86.3" font-family="Times,serif" font-size="14.00">ral</text>
</g>
<!-- color&#45;&#45;ral -->
<g id="edge37" class="edge">
<title>color&#45;&#45;ral</title>
<path fill="none" stroke="black" d="M519.33,-147.5C535.83,-134.95 560.26,-116.37 576.53,-103.98"/>
</g>
<!-- vista -->
<g id="node33" class="node">
<title>vista</title>
<ellipse fill="none" stroke="black" cx="665.6" cy="-90" rx="27.1" ry="18"/>
<text text-anchor="middle" x="665.6" y="-86.3" font-family="Times,serif" font-size="14.00">vista</text>
</g>
<!-- apertura&#45;&#45;vista -->
<g id="edge38" class="edge">
<title>apertura&#45;&#45;vista</title>
<path fill="none" stroke="black" d="M753.6,-147C733.41,-134.16 703.81,-115.32 684.62,-103.11"/>
</g>
<!-- abre -->
<g id="node34" class="node">
<title>abre</title>
<ellipse fill="none" stroke="black" cx="737.6" cy="-90" rx="27" ry="18"/>
<text text-anchor="middle" x="737.6" y="-86.3" font-family="Times,serif" font-size="14.00">abre</text>
</g>
<!-- apertura&#45;&#45;abre -->
<g id="edge39" class="edge">
<title>apertura&#45;&#45;abre</title>
<path fill="none" stroke="black" d="M766.59,-144.41C760.53,-133.25 752.58,-118.6 746.54,-107.47"/>
</g>
<!-- mano -->
<g id="node35" class="node">
<title>mano</title>
<ellipse fill="none" stroke="black" cx="813.6" cy="-90" rx="30.59" ry="18"/>
<text text-anchor="middle" x="813.6" y="-86.3" font-family="Times,serif" font-size="14.00">mano</text>
</g>
<!-- apertura&#45;&#45;mano -->
<g id="edge40" class="edge">
<title>apertura&#45;&#45;mano</title>
<path fill="none" stroke="black" d="M784.6,-144.41C790.66,-133.25 798.61,-118.6 804.66,-107.47"/>
</g>
<!-- lama móvil -->
<g id="node42" class="node">
<title>lama móvil</title>
<ellipse fill="none" stroke="black" cx="914.6" cy="-90" rx="51.99" ry="18"/>
<text text-anchor="middle" x="914.6" y="-86.3" font-family="Times,serif" font-size="14.00">lama móvil</text>
</g>
<!-- mallorquina&#45;&#45;lama móvil -->
<g id="edge47" class="edge">
<title>mallorquina&#45;&#45;lama móvil</title>
<path fill="none" stroke="black" d="M1046.59,-147.34C1017.5,-134.92 974.85,-116.72 945.97,-104.39"/>
</g>
<!-- lama fija -->
<g id="node43" class="node">
<title>lama fija</title>
<ellipse fill="none" stroke="black" cx="1026.6" cy="-90" rx="42.49" ry="18"/>
<text text-anchor="middle" x="1026.6" y="-86.3" font-family="Times,serif" font-size="14.00">lama fija</text>
</g>
<!-- mallorquina&#45;&#45;lama fija -->
<g id="edge48" class="edge">
<title>mallorquina&#45;&#45;lama fija</title>
<path fill="none" stroke="black" d="M1066.27,-144.41C1057.98,-133.25 1047.1,-118.6 1038.83,-107.47"/>
</g>
<!-- travesaño -->
<g id="node44" class="node">
<title>travesaño</title>
<ellipse fill="none" stroke="black" cx="1130.6" cy="-90" rx="44.39" ry="18"/>
<text text-anchor="middle" x="1130.6" y="-86.3" font-family="Times,serif" font-size="14.00">travesaño</text>
</g>
<!-- mallorquina&#45;&#45;travesaño -->
<g id="edge49" class="edge">
<title>mallorquina&#45;&#45;travesaño</title>
<path fill="none" stroke="black" d="M1090.92,-144.41C1099.21,-133.25 1110.09,-118.6 1118.36,-107.47"/>
</g>
<!-- cruceta -->
<g id="node45" class="node">
<title>cruceta</title>
<ellipse fill="none" stroke="black" cx="1229.6" cy="-90" rx="36.29" ry="18"/>
<text text-anchor="middle" x="1229.6" y="-86.3" font-family="Times,serif" font-size="14.00">cruceta</text>
</g>
<!-- mallorquina&#45;&#45;cruceta -->
<g id="edge50" class="edge">
<title>mallorquina&#45;&#45;cruceta</title>
<path fill="none" stroke="black" d="M1108.79,-147C1136.68,-134.08 1177.65,-115.08 1203.97,-102.88"/>
</g>
<!-- cremona -->
<g id="node46" class="node">
<title>cremona</title>
<ellipse fill="none" stroke="black" cx="1325.6" cy="-90" rx="41.69" ry="18"/>
<text text-anchor="middle" x="1325.6" y="-86.3" font-family="Times,serif" font-size="14.00">cremona</text>
</g>
<!-- cierres&#45;&#45;cremona -->
<g id="edge51" class="edge">
<title>cierres&#45;&#45;cremona</title>
<path fill="none" stroke="black" d="M1208.84,-148.97C1234.03,-136.46 1273.34,-116.94 1299.28,-104.06"/>
</g>
<!-- interior/exterior -->
<g id="node47" class="node">
<title>interior/exterior</title>
<ellipse fill="none" stroke="black" cx="1451.6" cy="-90" rx="66.09" ry="18"/>
<text text-anchor="middle" x="1451.6" y="-86.3" font-family="Times,serif" font-size="14.00">interior/exterior</text>
</g>
<!-- cierres&#45;&#45;interior/exterior -->
<g id="edge52" class="edge">
<title>cierres&#45;&#45;interior/exterior</title>
<path fill="none" stroke="black" d="M1210.92,-150.16C1216.69,-147.98 1222.81,-145.8 1228.6,-144 1245.13,-138.87 1342.21,-116.23 1402.7,-102.25"/>
</g>
<!-- pestillo -->
<g id="node48" class="node">
<title>pestillo</title>
<ellipse fill="none" stroke="black" cx="1572.6" cy="-90" rx="36.29" ry="18"/>
<text text-anchor="middle" x="1572.6" y="-86.3" font-family="Times,serif" font-size="14.00">pestillo</text>
</g>
<!-- cierres&#45;&#45;pestillo -->
<g id="edge53" class="edge">
<title>cierres&#45;&#45;pestillo</title>
<path fill="none" stroke="black" d="M1210.31,-149.84C1216.23,-147.62 1222.56,-145.51 1228.6,-144 1358.04,-111.71 1396.92,-139.34 1526.6,-108 1532.89,-106.48 1539.5,-104.36 1545.68,-102.14"/>
</g>
<!-- presión -->
<g id="node49" class="node">
<title>presión</title>
<ellipse fill="none" stroke="black" cx="1663.6" cy="-90" rx="36.29" ry="18"/>
<text text-anchor="middle" x="1663.6" y="-86.3" font-family="Times,serif" font-size="14.00">presión</text>
</g>
<!-- cierres&#45;&#45;presión -->
<g id="edge54" class="edge">
<title>cierres&#45;&#45;presión</title>
<path fill="none" stroke="black" d="M1210.28,-149.71C1216.2,-147.5 1222.54,-145.42 1228.6,-144 1397.63,-104.33 1448.27,-146.42 1617.6,-108 1623.91,-106.57 1630.52,-104.49 1636.71,-102.27"/>
</g>
<!-- otro -->
<g id="node50" class="node">
<title>otro</title>
<ellipse fill="none" stroke="black" cx="1744.6" cy="-90" rx="27" ry="18"/>
<text text-anchor="middle" x="1744.6" y="-86.3" font-family="Times,serif" font-size="14.00">otro</text>
</g>
<!-- cierres&#45;&#45;otro -->
<g id="edge55" class="edge">
<title>cierres&#45;&#45;otro</title>
<path fill="none" stroke="black" d="M1210.26,-149.64C1216.18,-147.42 1222.52,-145.37 1228.6,-144 1437.29,-96.94 1501.75,-162.59 1708.6,-108 1713.94,-106.59 1719.46,-104.4 1724.53,-102.06"/>
</g>
<!-- dentro -->
<g id="node36" class="node">
<title>dentro</title>
<ellipse fill="none" stroke="black" cx="527.6" cy="-18" rx="33.29" ry="18"/>
<text text-anchor="middle" x="527.6" y="-14.3" font-family="Times,serif" font-size="14.00">dentro</text>
</g>
<!-- vista&#45;&#45;dentro -->
<g id="edge41" class="edge">
<title>vista&#45;&#45;dentro</title>
<path fill="none" stroke="black" d="M644.64,-78.37C619.45,-65.59 577.32,-44.22 551.07,-30.91"/>
</g>
<!-- fuera -->
<g id="node37" class="node">
<title>fuera</title>
<ellipse fill="none" stroke="black" cx="607.6" cy="-18" rx="28.7" ry="18"/>
<text text-anchor="middle" x="607.6" y="-14.3" font-family="Times,serif" font-size="14.00">fuera</text>
</g>
<!-- vista&#45;&#45;fuera -->
<g id="edge42" class="edge">
<title>vista&#45;&#45;fuera</title>
<path fill="none" stroke="black" d="M653.01,-73.81C643.42,-62.23 630.25,-46.34 620.56,-34.64"/>
</g>
<!-- interior -->
<g id="node38" class="node">
<title>interior</title>
<ellipse fill="none" stroke="black" cx="690.6" cy="-18" rx="36.29" ry="18"/>
<text text-anchor="middle" x="690.6" y="-14.3" font-family="Times,serif" font-size="14.00">interior</text>
</g>
<!-- abre&#45;&#45;interior -->
<g id="edge43" class="edge">
<title>abre&#45;&#45;interior</title>
<path fill="none" stroke="black" d="M726.93,-73.12C719.35,-61.82 709.19,-46.7 701.55,-35.31"/>
</g>
<!-- exterior -->
<g id="node39" class="node">
<title>exterior</title>
<ellipse fill="none" stroke="black" cx="783.6" cy="-18" rx="38.19" ry="18"/>
<text text-anchor="middle" x="783.6" y="-14.3" font-family="Times,serif" font-size="14.00">exterior</text>
</g>
<!-- abre&#45;&#45;exterior -->
<g id="edge44" class="edge">
<title>abre&#45;&#45;exterior</title>
<path fill="none" stroke="black" d="M748.03,-73.12C755.46,-61.82 765.4,-46.7 772.88,-35.31"/>
</g>
<!-- izquierda -->
<g id="node40" class="node">
<title>izquierda</title>
<ellipse fill="none" stroke="black" cx="883.6" cy="-18" rx="43.59" ry="18"/>
<text text-anchor="middle" x="883.6" y="-14.3" font-family="Times,serif" font-size="14.00">izquierda</text>
</g>
<!-- mano&#45;&#45;izquierda -->
<g id="edge45" class="edge">
<title>mano&#45;&#45;izquierda</title>
<path fill="none" stroke="black" d="M828.44,-74.15C840,-62.6 856.01,-46.59 867.8,-34.8"/>
</g>
<!-- derecha -->
<g id="node41" class="node">
<title>derecha</title>
<ellipse fill="none" stroke="black" cx="983.6" cy="-18" rx="38.19" ry="18"/>
<text text-anchor="middle" x="983.6" y="-14.3" font-family="Times,serif" font-size="14.00">derecha</text>
</g>
<!-- mano&#45;&#45;derecha -->
<g id="edge46" class="edge">
<title>mano&#45;&#45;derecha</title>
<path fill="none" stroke="black" d="M837.69,-78.69C842.92,-76.47 848.44,-74.15 853.6,-72 888.59,-57.43 929.03,-41.01 955.4,-30.36"/>
</g>
<!-- texto -->
<g id="node51" class="node">
<title>texto</title>
<ellipse fill="none" stroke="black" cx="1744.6" cy="-18" rx="28.7" ry="18"/>
<text text-anchor="middle" x="1744.6" y="-14.3" font-family="Times,serif" font-size="14.00">texto</text>
</g>
<!-- otro&#45;&#45;texto -->
<g id="edge56" class="edge">
<title>otro&#45;&#45;texto</title>
<path fill="none" stroke="black" d="M1744.6,-71.7C1744.6,-60.85 1744.6,-46.92 1744.6,-36.1"/>
</g>
</g>
</svg>
